<mxfile host="app.diagrams.net" modified="2023-09-12T09:19:54.209Z" agent="Mozilla/5.0 (Windows NT 10.0; Win64; x64) AppleWebKit/537.36 (KHTML, like Gecko) Chrome/116.0.0.0 Safari/537.36" version="21.7.2" etag="XXSf2NimZmuFTw8a4zBA" type="device">
  <diagram id="Q_GrmNxc_KwXlfHGZ8h8" name="第 1 页">
    <mxGraphModel dx="2862" dy="2272" grid="1" gridSize="10" guides="1" tooltips="1" connect="1" arrows="1" fold="1" page="1" pageScale="1" pageWidth="827" pageHeight="1169" math="0" shadow="0">
      <root>
        <mxCell id="0" />
        <mxCell id="1" parent="0" />
        <mxCell id="qH4yDzdEcHHivHTeMMCt-19" value="" style="group;fillColor=#f8cecc;strokeColor=#b85450;sketch=1;curveFitting=1;jiggle=2;" vertex="1" connectable="0" parent="1">
          <mxGeometry x="20" y="70" width="700" height="370" as="geometry" />
        </mxCell>
        <mxCell id="qH4yDzdEcHHivHTeMMCt-1" value="" style="rounded=0;whiteSpace=wrap;html=1;sketch=1;curveFitting=1;jiggle=2;" vertex="1" parent="qH4yDzdEcHHivHTeMMCt-19">
          <mxGeometry width="700" height="370" as="geometry" />
        </mxCell>
        <mxCell id="qH4yDzdEcHHivHTeMMCt-2" value="&lt;font style=&quot;font-size: 17px;&quot;&gt;&lt;font color=&quot;#ff8000&quot;&gt;ECharts&lt;/font&gt;&lt;br&gt;&lt;font color=&quot;#666666&quot;&gt;Core&lt;br&gt;&lt;/font&gt;&lt;br&gt;&lt;/font&gt;" style="text;html=1;strokeColor=none;fillColor=none;align=center;verticalAlign=middle;whiteSpace=wrap;rounded=0;sketch=1;curveFitting=1;jiggle=2;" vertex="1" parent="qH4yDzdEcHHivHTeMMCt-19">
          <mxGeometry x="20" y="30" width="60" height="30" as="geometry" />
        </mxCell>
        <mxCell id="qH4yDzdEcHHivHTeMMCt-3" value="" style="rounded=0;whiteSpace=wrap;html=1;fillColor=#FFFfCC;strokeColor=#d6b656;sketch=1;curveFitting=1;jiggle=2;" vertex="1" parent="qH4yDzdEcHHivHTeMMCt-19">
          <mxGeometry x="10" y="90" width="520" height="270" as="geometry" />
        </mxCell>
        <mxCell id="qH4yDzdEcHHivHTeMMCt-11" value="&lt;font style=&quot;font-size: 15px;&quot;&gt;Scheduler&lt;/font&gt;" style="rounded=0;whiteSpace=wrap;html=1;sketch=1;curveFitting=1;jiggle=2;" vertex="1" parent="qH4yDzdEcHHivHTeMMCt-19">
          <mxGeometry x="560" y="70" width="120" height="60" as="geometry" />
        </mxCell>
        <mxCell id="qH4yDzdEcHHivHTeMMCt-25" value="&lt;font color=&quot;#666666&quot;&gt;Class&lt;/font&gt; &lt;font color=&quot;#ff8000&quot;&gt;ECharts&lt;/font&gt;" style="text;html=1;strokeColor=none;fillColor=none;align=center;verticalAlign=middle;whiteSpace=wrap;rounded=0;sketch=1;curveFitting=1;jiggle=2;" vertex="1" parent="qH4yDzdEcHHivHTeMMCt-19">
          <mxGeometry x="10" y="100" width="120" height="30" as="geometry" />
        </mxCell>
        <mxCell id="qH4yDzdEcHHivHTeMMCt-26" value="registerAction" style="rounded=0;whiteSpace=wrap;html=1;sketch=1;curveFitting=1;jiggle=2;" vertex="1" parent="qH4yDzdEcHHivHTeMMCt-19">
          <mxGeometry x="20" y="220" width="120" height="60" as="geometry" />
        </mxCell>
        <mxCell id="qH4yDzdEcHHivHTeMMCt-27" value="dispatchAction" style="rounded=0;whiteSpace=wrap;html=1;sketch=1;curveFitting=1;jiggle=2;" vertex="1" parent="qH4yDzdEcHHivHTeMMCt-19">
          <mxGeometry x="20" y="290" width="120" height="60" as="geometry" />
        </mxCell>
        <mxCell id="qH4yDzdEcHHivHTeMMCt-33" value="&lt;font style=&quot;font-size: 14px;&quot;&gt;other nameSpace API&lt;/font&gt;" style="rounded=0;whiteSpace=wrap;html=1;sketch=1;curveFitting=1;jiggle=2;" vertex="1" parent="qH4yDzdEcHHivHTeMMCt-19">
          <mxGeometry x="110" y="15" width="120" height="60" as="geometry" />
        </mxCell>
        <mxCell id="qH4yDzdEcHHivHTeMMCt-42" style="edgeStyle=orthogonalEdgeStyle;rounded=0;orthogonalLoop=1;jettySize=auto;html=1;exitX=0;exitY=0.5;exitDx=0;exitDy=0;sketch=1;curveFitting=1;jiggle=2;" edge="1" parent="qH4yDzdEcHHivHTeMMCt-19" source="qH4yDzdEcHHivHTeMMCt-5" target="qH4yDzdEcHHivHTeMMCt-3">
          <mxGeometry relative="1" as="geometry" />
        </mxCell>
        <mxCell id="qH4yDzdEcHHivHTeMMCt-9" value="" style="group;fillColor=#dae8fc;strokeColor=#6c8ebf;sketch=1;curveFitting=1;jiggle=2;" vertex="1" connectable="0" parent="qH4yDzdEcHHivHTeMMCt-19">
          <mxGeometry x="550" y="145" width="140" height="210" as="geometry" />
        </mxCell>
        <mxCell id="qH4yDzdEcHHivHTeMMCt-7" value="" style="rounded=0;whiteSpace=wrap;html=1;fillColor=#CCFFCC;strokeColor=#82b366;sketch=1;curveFitting=1;jiggle=2;" vertex="1" parent="qH4yDzdEcHHivHTeMMCt-9">
          <mxGeometry width="140" height="210" as="geometry" />
        </mxCell>
        <mxCell id="qH4yDzdEcHHivHTeMMCt-8" value="&lt;font color=&quot;#ff8000&quot; style=&quot;font-size: 13px;&quot;&gt;Extension&lt;/font&gt;" style="text;html=1;strokeColor=none;fillColor=none;align=center;verticalAlign=middle;whiteSpace=wrap;rounded=0;sketch=1;curveFitting=1;jiggle=2;" vertex="1" parent="qH4yDzdEcHHivHTeMMCt-9">
          <mxGeometry x="10" width="60" height="30" as="geometry" />
        </mxCell>
        <mxCell id="qH4yDzdEcHHivHTeMMCt-14" style="edgeStyle=orthogonalEdgeStyle;rounded=0;orthogonalLoop=1;jettySize=auto;html=1;exitX=0.5;exitY=0;exitDx=0;exitDy=0;sketch=1;curveFitting=1;jiggle=2;" edge="1" parent="qH4yDzdEcHHivHTeMMCt-9" source="qH4yDzdEcHHivHTeMMCt-4" target="qH4yDzdEcHHivHTeMMCt-5">
          <mxGeometry relative="1" as="geometry" />
        </mxCell>
        <mxCell id="qH4yDzdEcHHivHTeMMCt-4" value="&lt;font style=&quot;font-size: 14px;&quot;&gt;ExtensionFunc&lt;/font&gt;" style="rounded=0;whiteSpace=wrap;html=1;sketch=1;curveFitting=1;jiggle=2;" vertex="1" parent="qH4yDzdEcHHivHTeMMCt-9">
          <mxGeometry x="10" y="140" width="120" height="61" as="geometry" />
        </mxCell>
        <mxCell id="qH4yDzdEcHHivHTeMMCt-43" style="edgeStyle=orthogonalEdgeStyle;rounded=0;orthogonalLoop=1;jettySize=auto;html=1;exitX=0;exitY=0.5;exitDx=0;exitDy=0;sketch=1;curveFitting=1;jiggle=2;" edge="1" parent="qH4yDzdEcHHivHTeMMCt-9" source="qH4yDzdEcHHivHTeMMCt-5">
          <mxGeometry relative="1" as="geometry">
            <mxPoint x="-20" y="80" as="targetPoint" />
          </mxGeometry>
        </mxCell>
        <mxCell id="qH4yDzdEcHHivHTeMMCt-5" value="&lt;font style=&quot;font-size: 14px;&quot;&gt;ExtensionStore&lt;/font&gt;" style="rounded=0;whiteSpace=wrap;html=1;sketch=1;curveFitting=1;jiggle=2;" vertex="1" parent="qH4yDzdEcHHivHTeMMCt-9">
          <mxGeometry x="10" y="50" width="120" height="60" as="geometry" />
        </mxCell>
        <mxCell id="qH4yDzdEcHHivHTeMMCt-44" value="&lt;font style=&quot;font-size: 14px;&quot;&gt;GlobalModel&lt;/font&gt;" style="rounded=0;whiteSpace=wrap;html=1;fillColor=#dae8fc;strokeColor=#6c8ebf;sketch=1;curveFitting=1;jiggle=2;" vertex="1" parent="qH4yDzdEcHHivHTeMMCt-19">
          <mxGeometry x="399.5" y="100" width="120" height="60" as="geometry" />
        </mxCell>
        <mxCell id="qH4yDzdEcHHivHTeMMCt-63" value="&lt;font style=&quot;font-size: 14px;&quot;&gt;_ChartViews&lt;/font&gt;" style="rounded=0;whiteSpace=wrap;html=1;fillColor=#dae8fc;strokeColor=#6c8ebf;sketch=1;curveFitting=1;jiggle=2;" vertex="1" parent="qH4yDzdEcHHivHTeMMCt-19">
          <mxGeometry x="413.5" y="190" width="106" height="40" as="geometry" />
        </mxCell>
        <mxCell id="qH4yDzdEcHHivHTeMMCt-83" value="getViewOfSeriesModel&lt;br&gt;getViewOfComponentModel" style="rounded=0;whiteSpace=wrap;html=1;sketch=1;curveFitting=1;jiggle=2;" vertex="1" parent="qH4yDzdEcHHivHTeMMCt-19">
          <mxGeometry x="320" y="290" width="180" height="60" as="geometry" />
        </mxCell>
        <mxCell id="qH4yDzdEcHHivHTeMMCt-84" value="&lt;span style=&quot;font-size: 14px;&quot;&gt;_chartsMap&lt;/span&gt;" style="rounded=0;whiteSpace=wrap;html=1;fillColor=#dae8fc;strokeColor=#6c8ebf;sketch=1;curveFitting=1;jiggle=2;" vertex="1" parent="qH4yDzdEcHHivHTeMMCt-19">
          <mxGeometry x="413.5" y="240" width="106" height="40" as="geometry" />
        </mxCell>
        <mxCell id="qH4yDzdEcHHivHTeMMCt-85" value="&lt;font style=&quot;font-size: 14px;&quot;&gt;_compViews&lt;/font&gt;" style="rounded=0;whiteSpace=wrap;html=1;fillColor=#dae8fc;strokeColor=#6c8ebf;sketch=1;curveFitting=1;jiggle=2;" vertex="1" parent="qH4yDzdEcHHivHTeMMCt-19">
          <mxGeometry x="300.5" y="190" width="106" height="40" as="geometry" />
        </mxCell>
        <mxCell id="qH4yDzdEcHHivHTeMMCt-86" value="&lt;span style=&quot;font-size: 14px;&quot;&gt;_compsMap&lt;/span&gt;" style="rounded=0;whiteSpace=wrap;html=1;fillColor=#dae8fc;strokeColor=#6c8ebf;sketch=1;curveFitting=1;jiggle=2;" vertex="1" parent="qH4yDzdEcHHivHTeMMCt-19">
          <mxGeometry x="300.5" y="240" width="106" height="40" as="geometry" />
        </mxCell>
        <mxCell id="qH4yDzdEcHHivHTeMMCt-88" value="&lt;font style=&quot;font-size: 14px;&quot;&gt;other Ins API&lt;/font&gt;" style="rounded=0;whiteSpace=wrap;html=1;sketch=1;curveFitting=1;jiggle=2;" vertex="1" parent="qH4yDzdEcHHivHTeMMCt-19">
          <mxGeometry x="270" y="100" width="120" height="60" as="geometry" />
        </mxCell>
        <mxCell id="qH4yDzdEcHHivHTeMMCt-91" value="&lt;b&gt;__zr&lt;/b&gt;" style="rounded=0;whiteSpace=wrap;html=1;fillColor=#ffe6cc;strokeColor=#d79b00;sketch=1;curveFitting=1;jiggle=2;" vertex="1" parent="qH4yDzdEcHHivHTeMMCt-19">
          <mxGeometry x="170" y="290" width="120" height="60" as="geometry" />
        </mxCell>
        <mxCell id="qH4yDzdEcHHivHTeMMCt-92" value="&lt;font style=&quot;font-size: 15px;&quot;&gt;scheduler&lt;/font&gt;" style="rounded=0;whiteSpace=wrap;html=1;fillColor=#f8cecc;strokeColor=#b85450;sketch=1;curveFitting=1;jiggle=2;" vertex="1" parent="qH4yDzdEcHHivHTeMMCt-19">
          <mxGeometry x="170" y="220" width="120" height="60" as="geometry" />
        </mxCell>
        <mxCell id="qH4yDzdEcHHivHTeMMCt-146" value="&lt;font style=&quot;font-size: 14px;&quot;&gt;全局常量&lt;/font&gt;" style="rounded=0;whiteSpace=wrap;html=1;sketch=1;curveFitting=1;jiggle=2;" vertex="1" parent="qH4yDzdEcHHivHTeMMCt-19">
          <mxGeometry x="350" y="15" width="120" height="60" as="geometry" />
        </mxCell>
        <mxCell id="qH4yDzdEcHHivHTeMMCt-34" value="&lt;font style=&quot;font-size: 14px;&quot;&gt;&lt;a href=&quot;data:page/id,Q_GrmNxc_KwXlfHGZ8h8&quot;&gt;echarts全局API&lt;/a&gt;&lt;/font&gt;" style="whiteSpace=wrap;html=1;rounded=0;sketch=1;curveFitting=1;jiggle=2;" vertex="1" parent="1">
          <mxGeometry x="130" y="-30" width="120" height="60" as="geometry" />
        </mxCell>
        <mxCell id="qH4yDzdEcHHivHTeMMCt-35" value="" style="edgeStyle=orthogonalEdgeStyle;rounded=0;orthogonalLoop=1;jettySize=auto;html=1;sketch=1;curveFitting=1;jiggle=2;" edge="1" parent="1" source="qH4yDzdEcHHivHTeMMCt-33" target="qH4yDzdEcHHivHTeMMCt-34">
          <mxGeometry relative="1" as="geometry" />
        </mxCell>
        <mxCell id="qH4yDzdEcHHivHTeMMCt-41" style="edgeStyle=orthogonalEdgeStyle;rounded=0;orthogonalLoop=1;jettySize=auto;html=1;entryX=1;entryY=0.5;entryDx=0;entryDy=0;sketch=1;curveFitting=1;jiggle=2;" edge="1" parent="1" source="qH4yDzdEcHHivHTeMMCt-36" target="qH4yDzdEcHHivHTeMMCt-7">
          <mxGeometry relative="1" as="geometry" />
        </mxCell>
        <mxCell id="qH4yDzdEcHHivHTeMMCt-89" value="&lt;font style=&quot;font-size: 14px;&quot;&gt;&lt;a href=&quot;https://echarts.apache.org/zh/api.html#echartsInstance&quot;&gt;echarts实例API&lt;/a&gt;&lt;/font&gt;" style="whiteSpace=wrap;html=1;rounded=0;sketch=1;curveFitting=1;jiggle=2;" vertex="1" parent="1">
          <mxGeometry x="290" y="-30" width="120" height="60" as="geometry" />
        </mxCell>
        <mxCell id="qH4yDzdEcHHivHTeMMCt-90" value="" style="edgeStyle=orthogonalEdgeStyle;rounded=0;orthogonalLoop=1;jettySize=auto;html=1;sketch=1;curveFitting=1;jiggle=2;" edge="1" parent="1" source="qH4yDzdEcHHivHTeMMCt-88" target="qH4yDzdEcHHivHTeMMCt-89">
          <mxGeometry relative="1" as="geometry" />
        </mxCell>
        <mxCell id="qH4yDzdEcHHivHTeMMCt-36" value="" style="rounded=0;whiteSpace=wrap;html=1;movable=1;resizable=1;rotatable=1;deletable=1;editable=1;locked=0;connectable=1;container=0;sketch=1;curveFitting=1;jiggle=2;" vertex="1" parent="1">
          <mxGeometry x="800" y="70" width="860" height="370" as="geometry" />
        </mxCell>
        <mxCell id="qH4yDzdEcHHivHTeMMCt-12" value="&lt;font style=&quot;font-size: 14px;&quot;&gt;use&lt;/font&gt;" style="rounded=0;whiteSpace=wrap;html=1;movable=1;resizable=1;rotatable=1;deletable=1;editable=1;locked=0;connectable=1;container=0;sketch=1;curveFitting=1;jiggle=2;" vertex="1" parent="1">
          <mxGeometry x="914.6666666666666" y="100" width="722.4000000000001" height="60" as="geometry" />
        </mxCell>
        <mxCell id="qH4yDzdEcHHivHTeMMCt-37" value="&lt;font style=&quot;font-size: 18px;&quot; color=&quot;#ff8000&quot;&gt;Module Install&lt;br&gt;&lt;/font&gt;" style="text;html=1;strokeColor=none;fillColor=none;align=center;verticalAlign=middle;whiteSpace=wrap;rounded=0;movable=1;resizable=1;rotatable=1;deletable=1;editable=1;locked=0;connectable=1;container=0;sketch=1;curveFitting=1;jiggle=2;" vertex="1" parent="1">
          <mxGeometry x="800" y="70" width="140" height="30" as="geometry" />
        </mxCell>
        <mxCell id="qH4yDzdEcHHivHTeMMCt-105" style="edgeStyle=orthogonalEdgeStyle;rounded=0;orthogonalLoop=1;jettySize=auto;html=1;exitX=0.5;exitY=0;exitDx=0;exitDy=0;entryX=0.687;entryY=0.994;entryDx=0;entryDy=0;entryPerimeter=0;sketch=1;curveFitting=1;jiggle=2;" edge="1" parent="1" source="qH4yDzdEcHHivHTeMMCt-39">
          <mxGeometry relative="1" as="geometry">
            <mxPoint x="983.2954666666667" y="161.6400000000001" as="targetPoint" />
          </mxGeometry>
        </mxCell>
        <mxCell id="qH4yDzdEcHHivHTeMMCt-39" value="&lt;font style=&quot;font-size: 14px;&quot;&gt;RegisterChart/&lt;br&gt;CompView&lt;/font&gt;" style="rounded=0;whiteSpace=wrap;html=1;movable=1;resizable=1;rotatable=1;deletable=1;editable=1;locked=0;connectable=1;container=0;sketch=1;curveFitting=1;jiggle=2;" vertex="1" parent="1">
          <mxGeometry x="912.3399999999999" y="192" width="140" height="60" as="geometry" />
        </mxCell>
        <mxCell id="qH4yDzdEcHHivHTeMMCt-106" style="edgeStyle=orthogonalEdgeStyle;rounded=0;orthogonalLoop=1;jettySize=auto;html=1;exitX=0.5;exitY=0;exitDx=0;exitDy=0;entryX=0.907;entryY=1;entryDx=0;entryDy=0;entryPerimeter=0;sketch=1;curveFitting=1;jiggle=2;" edge="1" parent="1" source="qH4yDzdEcHHivHTeMMCt-104" target="qH4yDzdEcHHivHTeMMCt-12">
          <mxGeometry relative="1" as="geometry" />
        </mxCell>
        <mxCell id="qH4yDzdEcHHivHTeMMCt-104" value="&lt;span style=&quot;font-size: 14px;&quot;&gt;registerXXX&lt;/span&gt;" style="rounded=0;whiteSpace=wrap;html=1;movable=1;resizable=1;rotatable=1;deletable=1;editable=1;locked=0;connectable=1;container=0;sketch=1;curveFitting=1;jiggle=2;" vertex="1" parent="1">
          <mxGeometry x="1502.74" y="190" width="134.33" height="60" as="geometry" />
        </mxCell>
        <mxCell id="qH4yDzdEcHHivHTeMMCt-114" style="edgeStyle=orthogonalEdgeStyle;rounded=0;orthogonalLoop=1;jettySize=auto;html=1;exitX=0.5;exitY=0;exitDx=0;exitDy=0;entryX=0.5;entryY=1;entryDx=0;entryDy=0;sketch=1;curveFitting=1;jiggle=2;" edge="1" parent="1" source="qH4yDzdEcHHivHTeMMCt-109" target="qH4yDzdEcHHivHTeMMCt-39">
          <mxGeometry relative="1" as="geometry" />
        </mxCell>
        <mxCell id="qH4yDzdEcHHivHTeMMCt-109" value="&lt;span style=&quot;font-size: 14px;&quot;&gt;注册图表视图模型&lt;/span&gt;" style="rounded=0;whiteSpace=wrap;html=1;sketch=1;curveFitting=1;jiggle=2;" vertex="1" parent="1">
          <mxGeometry x="922.3399999999999" y="322" width="120" height="60" as="geometry" />
        </mxCell>
        <mxCell id="qH4yDzdEcHHivHTeMMCt-115" style="edgeStyle=orthogonalEdgeStyle;rounded=0;orthogonalLoop=1;jettySize=auto;html=1;exitX=0.5;exitY=0;exitDx=0;exitDy=0;entryX=0.5;entryY=1;entryDx=0;entryDy=0;sketch=1;curveFitting=1;jiggle=2;" edge="1" parent="1" source="qH4yDzdEcHHivHTeMMCt-110" target="qH4yDzdEcHHivHTeMMCt-104">
          <mxGeometry relative="1" as="geometry" />
        </mxCell>
        <mxCell id="qH4yDzdEcHHivHTeMMCt-110" value="&lt;span style=&quot;font-size: 14px;&quot;&gt;注册数据计算、新图形、视觉通道处理、渲染器、坐标系、地图等处理函数&lt;/span&gt;" style="rounded=0;whiteSpace=wrap;html=1;sketch=1;curveFitting=1;jiggle=2;" vertex="1" parent="1">
          <mxGeometry x="1489.8500000000001" y="320" width="160.1" height="60" as="geometry" />
        </mxCell>
        <mxCell id="qH4yDzdEcHHivHTeMMCt-117" style="edgeStyle=orthogonalEdgeStyle;rounded=0;orthogonalLoop=1;jettySize=auto;html=1;exitX=0.5;exitY=0;exitDx=0;exitDy=0;entryX=0.5;entryY=1;entryDx=0;entryDy=0;sketch=1;curveFitting=1;jiggle=2;" edge="1" parent="1" source="qH4yDzdEcHHivHTeMMCt-116" target="qH4yDzdEcHHivHTeMMCt-91">
          <mxGeometry relative="1" as="geometry" />
        </mxCell>
        <mxCell id="qH4yDzdEcHHivHTeMMCt-124" style="edgeStyle=orthogonalEdgeStyle;rounded=0;orthogonalLoop=1;jettySize=auto;html=1;exitX=0;exitY=0.5;exitDx=0;exitDy=0;entryX=1;entryY=0.5;entryDx=0;entryDy=0;sketch=1;curveFitting=1;jiggle=2;" edge="1" parent="1" source="qH4yDzdEcHHivHTeMMCt-116" target="qH4yDzdEcHHivHTeMMCt-123">
          <mxGeometry relative="1" as="geometry" />
        </mxCell>
        <mxCell id="qH4yDzdEcHHivHTeMMCt-126" style="edgeStyle=orthogonalEdgeStyle;rounded=0;orthogonalLoop=1;jettySize=auto;html=1;exitX=1;exitY=0.5;exitDx=0;exitDy=0;entryX=0;entryY=0.5;entryDx=0;entryDy=0;sketch=1;curveFitting=1;jiggle=2;" edge="1" parent="1" source="qH4yDzdEcHHivHTeMMCt-116" target="qH4yDzdEcHHivHTeMMCt-120">
          <mxGeometry relative="1" as="geometry" />
        </mxCell>
        <mxCell id="qH4yDzdEcHHivHTeMMCt-127" style="edgeStyle=orthogonalEdgeStyle;rounded=0;orthogonalLoop=1;jettySize=auto;html=1;exitX=1;exitY=0.5;exitDx=0;exitDy=0;entryX=0;entryY=0.5;entryDx=0;entryDy=0;sketch=1;curveFitting=1;jiggle=2;" edge="1" parent="1" source="qH4yDzdEcHHivHTeMMCt-116" target="qH4yDzdEcHHivHTeMMCt-121">
          <mxGeometry relative="1" as="geometry" />
        </mxCell>
        <mxCell id="qH4yDzdEcHHivHTeMMCt-129" style="edgeStyle=orthogonalEdgeStyle;rounded=0;orthogonalLoop=1;jettySize=auto;html=1;exitX=1;exitY=0.5;exitDx=0;exitDy=0;entryX=0;entryY=0.5;entryDx=0;entryDy=0;sketch=1;curveFitting=1;jiggle=2;" edge="1" parent="1" source="qH4yDzdEcHHivHTeMMCt-116" target="qH4yDzdEcHHivHTeMMCt-122">
          <mxGeometry relative="1" as="geometry" />
        </mxCell>
        <mxCell id="qH4yDzdEcHHivHTeMMCt-147" style="edgeStyle=orthogonalEdgeStyle;rounded=0;orthogonalLoop=1;jettySize=auto;html=1;exitX=1;exitY=0.5;exitDx=0;exitDy=0;entryX=0;entryY=0.5;entryDx=0;entryDy=0;" edge="1" parent="1" source="qH4yDzdEcHHivHTeMMCt-116" target="qH4yDzdEcHHivHTeMMCt-128">
          <mxGeometry relative="1" as="geometry" />
        </mxCell>
        <mxCell id="qH4yDzdEcHHivHTeMMCt-116" value="&lt;font style=&quot;font-size: 18px;&quot;&gt;zrender&lt;/font&gt;" style="rounded=1;whiteSpace=wrap;html=1;fillColor=#ffe6cc;strokeColor=#d79b00;sketch=1;curveFitting=1;jiggle=2;" vertex="1" parent="1">
          <mxGeometry x="20" y="490" width="700" height="90" as="geometry" />
        </mxCell>
        <mxCell id="qH4yDzdEcHHivHTeMMCt-120" value="&lt;font style=&quot;font-size: 14px;&quot;&gt;Animation&lt;/font&gt;" style="rounded=1;whiteSpace=wrap;html=1;fillColor=#ffe6cc;strokeColor=#d79b00;sketch=1;curveFitting=1;jiggle=2;" vertex="1" parent="1">
          <mxGeometry x="922.3399999999999" y="460" width="120" height="60" as="geometry" />
        </mxCell>
        <mxCell id="qH4yDzdEcHHivHTeMMCt-121" value="&lt;font style=&quot;font-size: 14px;&quot;&gt;ZrUtil&lt;/font&gt;" style="rounded=1;whiteSpace=wrap;html=1;fillColor=#ffe6cc;strokeColor=#d79b00;sketch=1;curveFitting=1;jiggle=2;" vertex="1" parent="1">
          <mxGeometry x="922.3399999999999" y="720" width="735.33" height="60" as="geometry" />
        </mxCell>
        <mxCell id="qH4yDzdEcHHivHTeMMCt-122" value="&lt;font style=&quot;font-size: 14px;&quot;&gt;Transform&lt;/font&gt;" style="rounded=1;whiteSpace=wrap;html=1;fillColor=#ffe6cc;strokeColor=#d79b00;sketch=1;curveFitting=1;jiggle=2;" vertex="1" parent="1">
          <mxGeometry x="922.34" y="540" width="397.66" height="60" as="geometry" />
        </mxCell>
        <mxCell id="qH4yDzdEcHHivHTeMMCt-125" style="edgeStyle=orthogonalEdgeStyle;rounded=0;orthogonalLoop=1;jettySize=auto;html=1;exitX=0.5;exitY=0;exitDx=0;exitDy=0;entryX=0;entryY=0.5;entryDx=0;entryDy=0;sketch=1;curveFitting=1;jiggle=2;" edge="1" parent="1" source="qH4yDzdEcHHivHTeMMCt-123" target="qH4yDzdEcHHivHTeMMCt-3">
          <mxGeometry relative="1" as="geometry" />
        </mxCell>
        <mxCell id="qH4yDzdEcHHivHTeMMCt-123" value="&lt;font style=&quot;font-size: 14px;&quot;&gt;Eventful&lt;/font&gt;" style="rounded=1;whiteSpace=wrap;html=1;fillColor=#ffe6cc;strokeColor=#d79b00;sketch=1;curveFitting=1;jiggle=2;" vertex="1" parent="1">
          <mxGeometry x="-180" y="505" width="120" height="60" as="geometry" />
        </mxCell>
        <mxCell id="qH4yDzdEcHHivHTeMMCt-128" value="&lt;font style=&quot;font-size: 14px;&quot;&gt;graphic&lt;/font&gt;" style="rounded=1;whiteSpace=wrap;html=1;fillColor=#ffe6cc;strokeColor=#d79b00;sketch=1;curveFitting=1;jiggle=2;" vertex="1" parent="1">
          <mxGeometry x="922.34" y="630" width="557.66" height="60" as="geometry" />
        </mxCell>
        <mxCell id="qH4yDzdEcHHivHTeMMCt-141" value="" style="group;sketch=1;curveFitting=1;jiggle=2;" vertex="1" connectable="0" parent="1">
          <mxGeometry x="1070" y="159.9999999999999" width="120" height="221.68" as="geometry" />
        </mxCell>
        <mxCell id="qH4yDzdEcHHivHTeMMCt-100" style="edgeStyle=orthogonalEdgeStyle;rounded=0;orthogonalLoop=1;jettySize=auto;html=1;exitX=0.5;exitY=0;exitDx=0;exitDy=0;entryX=0.262;entryY=0.972;entryDx=0;entryDy=0;entryPerimeter=0;movable=1;resizable=1;rotatable=1;deletable=1;editable=1;locked=0;connectable=1;sketch=1;curveFitting=1;jiggle=2;" edge="1" parent="qH4yDzdEcHHivHTeMMCt-141" source="qH4yDzdEcHHivHTeMMCt-28">
          <mxGeometry relative="1" as="geometry">
            <mxPoint x="59.555466666666234" as="targetPoint" />
          </mxGeometry>
        </mxCell>
        <mxCell id="qH4yDzdEcHHivHTeMMCt-28" value="&lt;font style=&quot;font-size: 14px;&quot;&gt;RegisterLayout&lt;/font&gt;" style="rounded=0;whiteSpace=wrap;html=1;movable=1;resizable=1;rotatable=1;deletable=1;editable=1;locked=0;connectable=1;container=0;sketch=1;curveFitting=1;jiggle=2;" vertex="1" parent="qH4yDzdEcHHivHTeMMCt-141">
          <mxGeometry x="5.630000000000109" y="31.680000000000064" width="108.75" height="60" as="geometry" />
        </mxCell>
        <mxCell id="qH4yDzdEcHHivHTeMMCt-112" style="edgeStyle=orthogonalEdgeStyle;rounded=0;orthogonalLoop=1;jettySize=auto;html=1;exitX=0.5;exitY=0;exitDx=0;exitDy=0;entryX=0.5;entryY=1;entryDx=0;entryDy=0;movable=1;resizable=1;rotatable=1;deletable=1;editable=1;locked=0;connectable=1;sketch=1;curveFitting=1;jiggle=2;" edge="1" parent="qH4yDzdEcHHivHTeMMCt-141" source="qH4yDzdEcHHivHTeMMCt-107" target="qH4yDzdEcHHivHTeMMCt-28">
          <mxGeometry relative="1" as="geometry" />
        </mxCell>
        <mxCell id="qH4yDzdEcHHivHTeMMCt-107" value="&lt;span style=&quot;font-size: 14px;&quot;&gt;注册图表计算布局函数&lt;/span&gt;" style="rounded=0;whiteSpace=wrap;html=1;movable=1;resizable=1;rotatable=1;deletable=1;editable=1;locked=0;connectable=1;sketch=1;curveFitting=1;jiggle=2;" vertex="1" parent="qH4yDzdEcHHivHTeMMCt-141">
          <mxGeometry y="161.68" width="120" height="60" as="geometry" />
        </mxCell>
        <mxCell id="qH4yDzdEcHHivHTeMMCt-143" style="edgeStyle=orthogonalEdgeStyle;rounded=0;orthogonalLoop=1;jettySize=auto;html=1;exitX=0.5;exitY=0;exitDx=0;exitDy=0;entryX=0.481;entryY=0.983;entryDx=0;entryDy=0;entryPerimeter=0;sketch=1;curveFitting=1;jiggle=2;" edge="1" parent="1" source="qH4yDzdEcHHivHTeMMCt-13" target="qH4yDzdEcHHivHTeMMCt-12">
          <mxGeometry relative="1" as="geometry" />
        </mxCell>
        <mxCell id="qH4yDzdEcHHivHTeMMCt-13" value="&lt;font style=&quot;font-size: 14px;&quot;&gt;RegisterHook&lt;/font&gt;" style="rounded=0;whiteSpace=wrap;html=1;movable=1;resizable=1;rotatable=1;deletable=1;editable=1;locked=0;connectable=1;container=0;sketch=1;curveFitting=1;jiggle=2;" vertex="1" parent="1">
          <mxGeometry x="1202.33" y="191.68" width="115.33" height="60" as="geometry" />
        </mxCell>
        <mxCell id="qH4yDzdEcHHivHTeMMCt-93" value="&lt;span style=&quot;font-size: 14px;&quot;&gt;注册生命周期处理函数&lt;/span&gt;" style="rounded=0;whiteSpace=wrap;html=1;movable=1;resizable=1;rotatable=1;deletable=1;editable=1;locked=0;connectable=1;sketch=1;curveFitting=1;jiggle=2;" vertex="1" parent="1">
          <mxGeometry x="1200" y="321.68000000000006" width="120" height="60" as="geometry" />
        </mxCell>
        <mxCell id="qH4yDzdEcHHivHTeMMCt-111" style="edgeStyle=orthogonalEdgeStyle;rounded=0;orthogonalLoop=1;jettySize=auto;html=1;exitX=0.5;exitY=0;exitDx=0;exitDy=0;entryX=0.5;entryY=1;entryDx=0;entryDy=0;movable=1;resizable=1;rotatable=1;deletable=1;editable=1;locked=0;connectable=1;sketch=1;curveFitting=1;jiggle=2;" edge="1" parent="1" source="qH4yDzdEcHHivHTeMMCt-93" target="qH4yDzdEcHHivHTeMMCt-13">
          <mxGeometry relative="1" as="geometry" />
        </mxCell>
        <mxCell id="qH4yDzdEcHHivHTeMMCt-144" style="edgeStyle=orthogonalEdgeStyle;rounded=0;orthogonalLoop=1;jettySize=auto;html=1;exitX=0.5;exitY=0;exitDx=0;exitDy=0;entryX=0.687;entryY=0.994;entryDx=0;entryDy=0;entryPerimeter=0;sketch=1;curveFitting=1;jiggle=2;" edge="1" parent="1" source="qH4yDzdEcHHivHTeMMCt-132" target="qH4yDzdEcHHivHTeMMCt-12">
          <mxGeometry relative="1" as="geometry" />
        </mxCell>
        <mxCell id="qH4yDzdEcHHivHTeMMCt-132" value="&lt;font style=&quot;font-size: 14px;&quot;&gt;RegisterSeries/&lt;br&gt;CompModel&lt;/font&gt;" style="rounded=0;whiteSpace=wrap;html=1;movable=1;resizable=1;rotatable=1;deletable=1;editable=1;locked=0;connectable=1;container=0;sketch=1;curveFitting=1;jiggle=2;" vertex="1" parent="1">
          <mxGeometry x="1340" y="192" width="140" height="60" as="geometry" />
        </mxCell>
        <mxCell id="qH4yDzdEcHHivHTeMMCt-133" style="edgeStyle=orthogonalEdgeStyle;rounded=0;orthogonalLoop=1;jettySize=auto;html=1;exitX=0.5;exitY=0;exitDx=0;exitDy=0;entryX=0.5;entryY=1;entryDx=0;entryDy=0;movable=1;resizable=1;rotatable=1;deletable=1;editable=1;locked=0;connectable=1;sketch=1;curveFitting=1;jiggle=2;" edge="1" parent="1" source="qH4yDzdEcHHivHTeMMCt-134" target="qH4yDzdEcHHivHTeMMCt-132">
          <mxGeometry relative="1" as="geometry" />
        </mxCell>
        <mxCell id="qH4yDzdEcHHivHTeMMCt-134" value="&lt;span style=&quot;font-size: 14px;&quot;&gt;注册图表数据模型&lt;/span&gt;" style="rounded=0;whiteSpace=wrap;html=1;movable=1;resizable=1;rotatable=1;deletable=1;editable=1;locked=0;connectable=1;container=0;sketch=1;curveFitting=1;jiggle=2;" vertex="1" parent="1">
          <mxGeometry x="1350" y="322" width="120" height="60" as="geometry" />
        </mxCell>
      </root>
    </mxGraphModel>
  </diagram>
</mxfile>
